<svg width="154" height="24" viewBox="0 0 154 24" fill="none" xmlns="http://www.w3.org/2000/svg">
<path d="M0.875 23V0.453125H5.59375V9.60938H15.75V0.453125H20.4688V23H15.75V13.5H5.59375V23H0.875Z" fill="white"/>
<path d="M34.3906 23.3906C32.1615 23.3906 30.2292 22.9167 28.5938 21.9688C26.9688 21.0208 25.7135 19.6771 24.8281 17.9375C23.9531 16.1875 23.5156 14.1198 23.5156 11.7344V11.7031C23.5156 9.30729 23.9583 7.23958 24.8438 5.5C25.7292 3.76042 26.9844 2.42188 28.6094 1.48438C30.2448 0.536458 32.1719 0.0625 34.3906 0.0625C36.6198 0.0625 38.5469 0.536458 40.1719 1.48438C41.7969 2.43229 43.0521 3.77604 43.9375 5.51562C44.8229 7.24479 45.2656 9.30729 45.2656 11.7031V11.7344C45.2656 14.1198 44.8229 16.1875 43.9375 17.9375C43.0521 19.6771 41.7969 21.0208 40.1719 21.9688C38.5573 22.9167 36.6302 23.3906 34.3906 23.3906ZM34.3906 19.3906C35.6406 19.3906 36.7188 19.0781 37.625 18.4531C38.5312 17.8177 39.2292 16.9271 39.7188 15.7812C40.2083 14.6354 40.4531 13.2865 40.4531 11.7344V11.7031C40.4531 10.1302 40.2031 8.77604 39.7031 7.64062C39.2135 6.49479 38.5104 5.61458 37.5938 5C36.6875 4.375 35.6198 4.0625 34.3906 4.0625C33.1615 4.0625 32.0885 4.36979 31.1719 4.98438C30.2656 5.59896 29.5625 6.47917 29.0625 7.625C28.5729 8.76042 28.3281 10.1198 28.3281 11.7031V11.7344C28.3281 13.2969 28.5729 14.651 29.0625 15.7969C29.5625 16.9427 30.2656 17.8281 31.1719 18.4531C32.0781 19.0781 33.151 19.3906 34.3906 19.3906Z" fill="white"/>
<path d="M48.3125 23V0.453125H57.625C59.3125 0.453125 60.7552 0.739583 61.9531 1.3125C63.1615 1.88542 64.0833 2.71354 64.7188 3.79688C65.3646 4.86979 65.6875 6.16146 65.6875 7.67188V7.70312C65.6875 9.18229 65.3177 10.5 64.5781 11.6562C63.849 12.8125 62.8594 13.6354 61.6094 14.125L66.3594 23H61.0156L56.8125 14.8281C56.7812 14.8281 56.7448 14.8281 56.7031 14.8281C56.6615 14.8281 56.6198 14.8281 56.5781 14.8281H53.0312V23H48.3125ZM53.0312 11.25H57.1094C58.2865 11.25 59.2031 10.9375 59.8594 10.3125C60.526 9.67708 60.8594 8.80729 60.8594 7.70312V7.67188C60.8594 6.58854 60.5156 5.72917 59.8281 5.09375C59.1406 4.45833 58.2135 4.14062 57.0469 4.14062H53.0312V11.25Z" fill="white"/>
<path d="M67.375 23L75.25 0.453125H79.4062V4.82812H77.9688L72.3281 23H67.375ZM71.6094 17.5312L72.7656 14H83.2812L84.4375 17.5312H71.6094ZM83.7031 23L78.0625 4.82812V0.453125H80.7969L88.6562 23H83.7031Z" fill="white"/>
<path d="M90.9688 23V0.453125H95.0938L107.359 18.0938L103.406 15.1094H105.375V0.453125H110.078V23H105.984L93.7031 5.25L97.6562 8.23438H95.6719V23H90.9688Z" fill="white"/>
<path d="M113.844 23V0.453125H118.562V23H113.844Z" fill="white"/>
<path d="M120.875 23L128.75 0.453125H132.906V4.82812H131.469L125.828 23H120.875ZM125.109 17.5312L126.266 14H136.781L137.938 17.5312H125.109ZM137.203 23L131.562 4.82812V0.453125H134.297L142.156 23H137.203Z" fill="white"/>
<path d="M146.25 0.609375H149.234L148.922 6.28125H146.562L146.25 0.609375ZM146.25 11.9375L146.562 6.28125H148.922L149.234 11.9375H146.25ZM142.203 4.59375L143.719 2.23438L148.344 5.3125L147.156 7.23438L142.203 4.59375ZM153.312 4.59375L148.344 7.23438L147.156 5.3125L151.781 2.23438L153.312 4.59375ZM153.297 7.95312L151.781 10.3125L147.156 7.23438L148.344 5.3125L153.297 7.95312ZM142.203 7.96875L147.156 5.32812L148.344 7.23438L143.719 10.3125L142.203 7.96875Z" fill="white"/>
</svg>
