<svg width="16" height="17" viewBox="0 0 16 17" fill="none" xmlns="http://www.w3.org/2000/svg">
<path fill-rule="evenodd" clip-rule="evenodd" d="M2 13C2 12.7239 2.22386 12.5 2.5 12.5H13.5C13.7761 12.5 14 12.7239 14 13C14 13.2761 13.7761 13.5 13.5 13.5H2.5C2.22386 13.5 2 13.2761 2 13Z" fill="white"/>
<path fill-rule="evenodd" clip-rule="evenodd" d="M2 10C2 9.72386 2.22386 9.5 2.5 9.5H13.5C13.7761 9.5 14 9.72386 14 10C14 10.2761 13.7761 10.5 13.5 10.5H2.5C2.22386 10.5 2 10.2761 2 10Z" fill="white"/>
<path fill-rule="evenodd" clip-rule="evenodd" d="M2 7C2 6.72386 2.22386 6.5 2.5 6.5H13.5C13.7761 6.5 14 6.72386 14 7C14 7.27614 13.7761 7.5 13.5 7.5H2.5C2.22386 7.5 2 7.27614 2 7Z" fill="white"/>
<path fill-rule="evenodd" clip-rule="evenodd" d="M2 4C2 3.72386 2.22386 3.5 2.5 3.5H13.5C13.7761 3.5 14 3.72386 14 4C14 4.27614 13.7761 4.5 13.5 4.5H2.5C2.22386 4.5 2 4.27614 2 4Z" fill="white"/>
</svg>
